<svg width="25" height="24" viewBox="0 0 25 24" fill="none" xmlns="http://www.w3.org/2000/svg">
<path d="M21.5001 4.5V19.5C21.5001 19.8978 21.342 20.2794 21.0607 20.5607C20.7794 20.842 20.3979 21 20.0001 21H13.2501C13.0511 21 12.8604 20.921 12.7197 20.7803C12.5791 20.6397 12.5001 20.4489 12.5001 20.25C12.5001 20.0511 12.5791 19.8603 12.7197 19.7197C12.8604 19.579 13.0511 19.5 13.2501 19.5H20.0001V4.5H5.00005V13.5C5.00005 13.6989 4.92103 13.8897 4.78038 14.0303C4.63973 14.171 4.44896 14.25 4.25005 14.25C4.05114 14.25 3.86037 14.171 3.71972 14.0303C3.57907 13.8897 3.50005 13.6989 3.50005 13.5V4.5C3.50005 4.10218 3.65809 3.72064 3.93939 3.43934C4.2207 3.15804 4.60223 3 5.00005 3H20.0001C20.3979 3 20.7794 3.15804 21.0607 3.43934C21.342 3.72064 21.5001 4.10218 21.5001 4.5ZM12.2807 14.4694C12.211 14.3996 12.1283 14.3443 12.0373 14.3066C11.9462 14.2688 11.8486 14.2494 11.7501 14.2494C11.6515 14.2494 11.5539 14.2688 11.4628 14.3066C11.3718 14.3443 11.2891 14.3996 11.2194 14.4694L6.50005 19.1897L4.78068 17.4694C4.71099 17.3997 4.62827 17.3444 4.53722 17.3067C4.44618 17.269 4.3486 17.2496 4.25005 17.2496C4.1515 17.2496 4.05392 17.269 3.96288 17.3067C3.87183 17.3444 3.78911 17.3997 3.71943 17.4694C3.64974 17.5391 3.59447 17.6218 3.55676 17.7128C3.51904 17.8039 3.49963 17.9015 3.49963 18C3.49963 18.0985 3.51904 18.1961 3.55676 18.2872C3.59447 18.3782 3.64974 18.4609 3.71943 18.5306L5.96943 20.7806C6.03908 20.8504 6.1218 20.9057 6.21285 20.9434C6.30389 20.9812 6.40149 21.0006 6.50005 21.0006C6.59861 21.0006 6.69621 20.9812 6.78726 20.9434C6.8783 20.9057 6.96102 20.8504 7.03068 20.7806L12.2807 15.5306C12.3504 15.461 12.4057 15.3783 12.4435 15.2872C12.4812 15.1962 12.5006 15.0986 12.5006 15C12.5006 14.9014 12.4812 14.8038 12.4435 14.7128C12.4057 14.6217 12.3504 14.539 12.2807 14.4694Z" fill="white" fill-opacity="0.5"/>
</svg>
