<svg width="25" height="24" viewBox="0 0 25 24" fill="none" xmlns="http://www.w3.org/2000/svg">
<path fill-rule="evenodd" clip-rule="evenodd" d="M14.0578 5.53423C13.1872 4.69887 11.8127 4.69887 10.9421 5.53423L6.31568 9.97357C6.20233 10.0823 6.12608 10.224 6.09774 10.3785C5.54361 13.4004 5.50271 16.494 5.97675 19.5295L6.08927 20.25H9.06573V14.0387C9.06573 13.6244 9.40152 13.2887 9.81573 13.2887H15.1842C15.5984 13.2887 15.9342 13.6244 15.9342 14.0387V20.25H18.9106L19.0231 19.5295C19.4972 16.494 19.4563 13.4004 18.9021 10.3785C18.8738 10.224 18.7976 10.0823 18.6842 9.97357L14.0578 5.53423ZM9.90357 4.45191C11.3545 3.05965 13.6454 3.05965 15.0963 4.45191L19.7227 8.89125C20.0633 9.21804 20.2924 9.64373 20.3775 10.108C20.9621 13.2956 21.0052 16.559 20.5052 19.7609L20.3244 20.9184C20.2496 21.3971 19.8374 21.75 19.3529 21.75H15.1842C14.7699 21.75 14.4342 21.4142 14.4342 21V14.7887H10.5657V21C10.5657 21.4142 10.2299 21.75 9.81573 21.75H5.647C5.16252 21.75 4.75023 21.3971 4.67548 20.9184L4.49472 19.7609C3.99467 16.559 4.03781 13.2956 4.62234 10.108C4.70748 9.64373 4.93656 9.21804 5.27713 8.89125L9.90357 4.45191Z" fill="white"/>
</svg>
