<svg width="25" height="24" viewBox="0 0 25 24" fill="none" xmlns="http://www.w3.org/2000/svg">
<path d="M23.45 14.1C23.3712 14.1591 23.2816 14.2021 23.1862 14.2265C23.0908 14.251 22.9915 14.2564 22.894 14.2424C22.7965 14.2285 22.7027 14.1955 22.6179 14.1453C22.5332 14.0952 22.4591 14.0288 22.4 13.95C21.948 13.3424 21.3596 12.8493 20.6822 12.5107C20.0048 12.172 19.2574 11.997 18.5 12C18.3526 12 18.2083 11.9565 18.0855 11.8749C17.9626 11.7934 17.8664 11.6774 17.8091 11.5415C17.7702 11.4493 17.7501 11.3501 17.7501 11.25C17.7501 11.1498 17.7702 11.0507 17.8091 10.9584C17.8664 10.8225 17.9626 10.7066 18.0855 10.625C18.2083 10.5435 18.3526 10.5 18.5 10.5C18.9209 10.4999 19.3332 10.3819 19.6903 10.1592C20.0474 9.93659 20.3349 9.61825 20.5201 9.2404C20.7054 8.86254 20.7809 8.44031 20.7382 8.02167C20.6955 7.60302 20.5363 7.20474 20.2786 6.87207C20.0209 6.53939 19.675 6.28566 19.2803 6.13969C18.8856 5.99371 18.4579 5.96135 18.0458 6.04628C17.6336 6.13121 17.2535 6.33002 16.9487 6.62013C16.6439 6.91024 16.4265 7.28003 16.3213 7.68748C16.2967 7.7829 16.2535 7.87253 16.1942 7.95125C16.135 8.02998 16.0608 8.09627 15.9759 8.14632C15.891 8.19638 15.7971 8.22923 15.6995 8.24299C15.602 8.25676 15.5026 8.25117 15.4072 8.22655C15.3118 8.20192 15.2222 8.15875 15.1435 8.09949C15.0647 8.04023 14.9984 7.96604 14.9484 7.88116C14.8983 7.79628 14.8655 7.70237 14.8517 7.6048C14.838 7.50723 14.8435 7.4079 14.8682 7.31248C15.0142 6.74747 15.2901 6.22433 15.6738 5.78469C16.0576 5.34505 16.5387 5.00105 17.0788 4.78006C17.619 4.55907 18.2032 4.46719 18.7851 4.51173C19.367 4.55627 19.9304 4.736 20.4306 5.03662C20.9308 5.33724 21.3539 5.75045 21.6663 6.24338C21.9787 6.7363 22.1718 7.29533 22.2301 7.87599C22.2884 8.45665 22.2104 9.04291 22.0023 9.58812C21.7942 10.1333 21.4617 10.6224 21.0313 11.0165C22.0511 11.4581 22.9377 12.1588 23.6028 13.049C23.6619 13.128 23.7049 13.2179 23.7292 13.3135C23.7535 13.4091 23.7587 13.5086 23.7445 13.6062C23.7303 13.7038 23.697 13.7977 23.6465 13.8824C23.5959 13.9672 23.5292 14.0411 23.45 14.1ZM18.3988 19.875C18.4531 19.9603 18.4895 20.0558 18.5059 20.1556C18.5223 20.2554 18.5184 20.3575 18.4943 20.4558C18.4703 20.554 18.4266 20.6464 18.3659 20.7273C18.3052 20.8082 18.2288 20.876 18.1412 20.9267C18.0536 20.9773 17.9567 21.0097 17.8563 21.0219C17.7559 21.0341 17.654 21.0258 17.5569 20.9976C17.4597 20.9695 17.3693 20.9219 17.291 20.8579C17.2127 20.7938 17.1482 20.7146 17.1013 20.625C16.6288 19.825 15.956 19.162 15.1491 18.7014C14.3422 18.2409 13.4291 17.9986 12.5 17.9986C11.5709 17.9986 10.6579 18.2409 9.85102 18.7014C9.04412 19.162 8.37125 19.825 7.89879 20.625C7.8519 20.7146 7.78737 20.7938 7.70908 20.8579C7.63078 20.9219 7.54034 20.9695 7.44319 20.9976C7.34605 21.0258 7.2442 21.0341 7.14379 21.0219C7.04338 21.0097 6.94647 20.9773 6.85889 20.9267C6.77132 20.876 6.69489 20.8082 6.6342 20.7273C6.57352 20.6464 6.52983 20.554 6.50576 20.4558C6.4817 20.3575 6.47775 20.2554 6.49417 20.1556C6.51059 20.0558 6.54702 19.9603 6.60129 19.875C7.32841 18.6257 8.4371 17.6425 9.76441 17.07C9.01753 16.4981 8.46863 15.7066 8.19485 14.8067C7.92108 13.9068 7.9362 12.9437 8.23808 12.0528C8.53997 11.1619 9.11346 10.388 9.87792 9.83987C10.6424 9.29175 11.5594 8.99698 12.5 8.99698C13.4407 8.99698 14.3577 9.29175 15.1222 9.83987C15.8866 10.388 16.4601 11.1619 16.762 12.0528C17.0639 12.9437 17.079 13.9068 16.8052 14.8067C16.5315 15.7066 15.9825 16.4981 15.2357 17.07C16.563 17.6425 17.6717 18.6257 18.3988 19.875ZM12.5 16.5C13.0934 16.5 13.6734 16.324 14.1667 15.9944C14.6601 15.6647 15.0446 15.1962 15.2717 14.648C15.4987 14.0999 15.5582 13.4967 15.4424 12.9147C15.3266 12.3328 15.0409 11.7982 14.6214 11.3787C14.2018 10.9591 13.6673 10.6734 13.0853 10.5576C12.5034 10.4419 11.9002 10.5013 11.352 10.7283C10.8038 10.9554 10.3353 11.3399 10.0056 11.8333C9.67599 12.3266 9.50004 12.9066 9.50004 13.5C9.50004 14.2956 9.81611 15.0587 10.3787 15.6213C10.9413 16.1839 11.7044 16.5 12.5 16.5ZM7.25004 11.25C7.25004 11.0511 7.17102 10.8603 7.03037 10.7197C6.88972 10.579 6.69895 10.5 6.50004 10.5C6.07922 10.4999 5.66685 10.3819 5.30976 10.1592C4.95267 9.93659 4.66518 9.61825 4.47994 9.2404C4.29471 8.86254 4.21915 8.44031 4.26185 8.02167C4.30455 7.60302 4.4638 7.20474 4.72152 6.87207C4.97923 6.53939 5.32507 6.28566 5.71976 6.13969C6.11445 5.99371 6.54216 5.96135 6.95432 6.04628C7.36648 6.13121 7.74656 6.33002 8.05139 6.62013C8.35622 6.91024 8.57359 7.28003 8.67879 7.68748C8.72852 7.88018 8.85276 8.04523 9.02418 8.14632C9.1956 8.24742 9.40016 8.27627 9.59285 8.22655C9.78555 8.17682 9.9506 8.05258 10.0517 7.88116C10.1528 7.70974 10.1816 7.50518 10.1319 7.31248C9.98589 6.74747 9.71002 6.22433 9.32624 5.78469C8.94246 5.34505 8.46137 5.00105 7.92125 4.78006C7.38112 4.55907 6.79688 4.46719 6.215 4.51173C5.63312 4.55627 5.06967 4.736 4.56947 5.03662C4.06928 5.33724 3.64614 5.75045 3.33375 6.24338C3.02135 6.7363 2.82831 7.29533 2.76998 7.87599C2.71165 8.45665 2.78965 9.04291 2.99777 9.58812C3.20589 10.1333 3.53838 10.6224 3.96879 11.0165C2.94999 11.4585 2.06446 12.1592 1.40004 13.049C1.28057 13.2082 1.2292 13.4082 1.25725 13.6052C1.28529 13.8023 1.39044 13.98 1.54957 14.0995C1.7087 14.219 1.90877 14.2704 2.10577 14.2423C2.30278 14.2143 2.48057 14.1091 2.60004 13.95C3.05209 13.3424 3.64049 12.8493 4.31788 12.5107C4.99526 12.172 5.74271 11.997 6.50004 12C6.69895 12 6.88972 11.921 7.03037 11.7803C7.17102 11.6397 7.25004 11.4489 7.25004 11.25Z" fill="white" fill-opacity="0.5"/>
</svg>
